# xmcd
#
# Track frame offsets:
#	150
#	14865
#	36215
#	51787
#	68836
#	86189
#	104675
#	127336
#	143964
#	157068
#	186867
#	208516
#
# Disc length: 3291
#
# Revision: 2
# Processed by: cddbd v1.5.1PL0 Copyright (c) Steve Scherf et al.
# Submitted via: audiograbber 1.82.01
# Normalized: r1:DSETVAR1
#
DISCID=be0cd90c
DTITLE=Various Artist - Disco Hits [CD6]
DYEAR=1970
DGENRE=Disco
TTITLE0=BeeGees - More Than A Woman
TTITLE1=Blondie - The Tide Is High
TTITLE2=Captain And Tenile - Love Will Keep Us Together
TTITLE3=Chic - Good Times
TTITLE4=Crown Heights Affair - Dreaming A Dream
TTITLE5=Hot Chocolate - You Sexy Thing
TTITLE6=Kool and The Gang - Celebration
TTITLE7=Olivia Newton-John - I Honestly Love You
TTITLE8=Partridge Family - I Think I Love You
TTITLE9=Peaches and Herb - Shake Your Groove Thing
TTITLE10=Salsoul Orchestra - Runaway
TTITLE11=Sylvester - Dance
EXTD=
EXTT0=
EXTT1=
EXTT2=
EXTT3=
EXTT4=
EXTT5=
EXTT6=
EXTT7=
EXTT8=
EXTT9=
EXTT10=
EXTT11=
PLAYORDER=
